<?xml version="1.0" encoding="UTF-8"?>
<svg width="32" height="32" viewBox="0 0 32 32" fill="none" xmlns="http://www.w3.org/2000/svg">
  <circle cx="16" cy="16" r="16" fill="#14F195"/>
  <path d="M9.094 19.784L11.367 22.057C11.458 22.148 11.578 22.207 11.708 22.224C11.837 22.241 11.968 22.216 12.082 22.152L23.684 15.874C23.787 15.817 23.872 15.732 23.929 15.629C23.986 15.526 24.013 15.409 24.006 15.292C23.999 15.175 23.959 15.062 23.89 14.966C23.821 14.87 23.727 14.796 23.619 14.752L21.139 13.781C21.009 13.728 20.865 13.724 20.733 13.769C20.601 13.814 20.488 13.905 20.414 14.025L9.094 19.784ZM9.094 12.784L11.367 15.057C11.458 15.148 11.578 15.207 11.708 15.224C11.837 15.241 11.968 15.216 12.082 15.152L23.684 8.874C23.787 8.817 23.872 8.732 23.929 8.629C23.986 8.526 24.013 8.409 24.006 8.292C23.999 8.175 23.959 8.062 23.89 7.966C23.821 7.87 23.727 7.796 23.619 7.752L21.139 6.781C21.009 6.728 20.865 6.724 20.733 6.769C20.601 6.814 20.488 6.905 20.414 7.025L9.094 12.784ZM20.414 21.025L9.094 26.784L11.367 29.057C11.458 29.148 11.578 29.207 11.708 29.224C11.837 29.241 11.968 29.216 12.082 29.152L23.684 22.874C23.787 22.817 23.872 22.732 23.929 22.629C23.986 22.526 24.013 22.409 24.006 22.292C23.999 22.175 23.959 22.062 23.89 21.966C23.821 21.87 23.727 21.796 23.619 21.752L21.139 20.781C21.009 20.728 20.865 20.724 20.733 20.769C20.601 20.814 20.488 20.905 20.414 21.025Z" fill="white"/>
</svg> 