<?xml version="1.0" encoding="UTF-8"?>
<svg width="32" height="32" viewBox="0 0 32 32" fill="none" xmlns="http://www.w3.org/2000/svg">
  <circle cx="16" cy="16" r="16" fill="#2775CA"/>
  <path d="M16 4C9.37 4 4 9.37 4 16C4 22.63 9.37 28 16 28C22.63 28 28 22.63 28 16C28 9.37 22.63 4 16 4ZM17.5 21.5H14.5V23H17.5V24.5H14.5C13.67 24.5 13 23.83 13 23V21.5C13 20.67 13.67 20 14.5 20H17.5V18.5H14.5V17H17.5C18.33 17 19 17.67 19 18.5V20C19 20.83 18.33 21.5 17.5 21.5ZM20.5 15.5H13.5C12.67 15.5 12 14.83 12 14V10C12 9.17 12.67 8.5 13.5 8.5H20.5C21.33 8.5 22 9.17 22 10V14C22 14.83 21.33 15.5 20.5 15.5ZM20.5 10H13.5V14H20.5V10Z" fill="white"/>
</svg> 