<svg width="16" height="16" viewBox="0 0 32 32" fill="none" xmlns="http://www.w3.org/2000/svg">
  <path d="M31.8056 11.727C31.8346 14.3384 31.2881 16.8337 30.2146 19.2178C28.6816 22.6126 25.0063 25.3885 21.6501 22.4337C18.913 20.0254 18.4052 15.1363 14.3044 14.4206C8.87845 13.7629 8.74788 20.0544 5.20315 20.7653C1.2522 21.5681 -0.0583338 14.9235 -0.000302664 11.9059C0.0577284 8.88828 0.860492 4.64717 4.294 4.64717C8.24495 4.64717 8.51092 10.6292 13.5258 10.3052C18.4923 9.96669 18.5793 3.74285 21.8242 1.07826C24.6242 -1.22364 27.9175 0.464096 29.5665 3.23508C31.0947 5.79812 31.7669 8.80606 31.8007 11.727H31.8056Z" fill="#072723"/>
</svg>
